<svg viewBox="0 0 1420 1024">
    <path d="M709.085941 362.799804c-80.858607 0-148.950066 65.963601-148.950066 148.950066s65.963601 148.950066 148.950066 148.950066c80.858607 0 148.950066-65.963601 148.950066-148.950066 0-80.858607-65.963601-148.950066-148.950066-148.950066z m-221.297241-121.287911a58.133083 58.133083 0 0 0-57.452168-57.452168c-14.895007 0-29.790013 6.383574-40.429304 17.022864-80.858607 82.986465-127.671485 193.635086-127.671485 310.667281s46.812878 227.680815 127.671485 308.539423c21.278581 21.278581 57.452168 21.278581 78.730749 0s21.278581-57.452168 0-78.730749c-125.543627-125.543627-125.543627-331.945862 0-459.617347 12.767149-10.63929 19.150723-25.534297 19.150723-40.429304zM113.285676 511.74987c0-157.461499 61.707885-304.283707 172.356506-414.932327 21.278581-21.278581 21.278581-57.452168 0-78.730749S228.190013-3.191787 206.911432 18.086794C74.984231 147.886137 0.509198 326.626217 0.509198 511.74987S74.984231 875.613603 204.783574 1005.412947c21.278581 21.278581 57.452168 21.278581 78.73075 0s21.278581-57.452168 0-78.730749C174.993561 816.033577 113.285676 669.211369 113.285676 511.74987zM1026.136796 203.210447c-21.278581-21.278581-57.452168-21.278581-78.730749 0s-21.278581 57.452168 0 78.73075c61.707885 61.707885 95.753614 142.566492 95.753614 229.808673 0 85.114324-34.045729 168.100789-95.753614 229.808674-14.895007 14.895007-19.150723 34.045729-14.895006 55.32431 4.255716 19.150723 21.278581 34.045729 40.429303 40.429304 19.150723 4.255716 40.429304 0 55.324311-14.895007 82.986465-82.986465 127.671485-193.635086 127.671485-308.539423s-46.812878-229.808674-129.799344-310.667281z m340.457295 44.68502C1332.548361 160.653286 1279.351909 81.922536 1213.388308 15.958936c-21.278581-21.278581-57.452168-21.278581-78.730749 0s-21.278581 57.452168 0 78.730749c108.520763 112.776479 170.228647 259.598687 170.228647 417.060185s-61.707885 304.283707-172.356505 414.932328c-14.895007 14.895007-19.150723 34.045729-14.895007 55.32431 4.255716 19.150723 21.278581 34.045729 40.429304 40.429304 19.150723 4.255716 40.429304 0 55.32431-14.895007 197.890802-200.01866 257.470829-497.918793 153.205783-759.645338z"
    ></path>
</svg>