<svg viewBox="0 0 23.3 14.4">
    <path  d="M11.6,5.1c-1.1,0-2.1,0.9-2.1,2.1s0.9,2.1,2.1,2.1c1.1,0,2.1-0.9,2.1-2.1C13.7,6.1,12.8,5.1,11.6,5.1z M8.5,3.4
	c0-0.4-0.4-0.8-0.8-0.8c-0.2,0-0.4,0.1-0.6,0.2C6,4,5.3,5.6,5.3,7.2s0.7,3.2,1.8,4.4c0.3,0.3,0.8,0.3,1.1,0c0.3-0.3,0.3-0.8,0-1.1
	C6.4,8.7,6.4,5.8,8.2,4C8.4,3.8,8.5,3.6,8.5,3.4z M3.2,7.2c0-2.2,0.9-4.3,2.4-5.9c0.3-0.3,0.3-0.8,0-1.1s-0.8-0.3-1.1,0
	c-1.9,1.8-2.9,4.4-2.9,7s1.1,5.1,2.9,7c0.3,0.3,0.8,0.3,1.1,0c0.3-0.3,0.3-0.8,0-1.1C4.1,11.5,3.2,9.4,3.2,7.2z M16.1,2.9
	c-0.3-0.3-0.8-0.3-1.1,0c-0.3,0.3-0.3,0.8,0,1.1c0.9,0.9,1.4,2,1.4,3.2c0,1.2-0.5,2.4-1.4,3.2c-0.2,0.2-0.3,0.5-0.2,0.8
	c0.1,0.3,0.3,0.5,0.6,0.6c0.3,0.1,0.6,0,0.8-0.2c1.2-1.2,1.8-2.7,1.8-4.4S17.3,4,16.1,2.9z M20.9,3.5c-0.5-1.2-1.2-2.3-2.2-3.3
	c-0.3-0.3-0.8-0.3-1.1,0c-0.3,0.3-0.3,0.8,0,1.1C19.1,2.9,20,5,20,7.2s-0.9,4.3-2.4,5.9c-0.2,0.2-0.3,0.5-0.2,0.8
	c0.1,0.3,0.3,0.5,0.6,0.6c0.3,0.1,0.6,0,0.8-0.2C21.5,11.4,22.4,7.2,20.9,3.5z"/>
    <g>
        <path  d="M17.3,2c0,0-0.1,0.1-0.2,0.1c-0.1,0.1-0.3,0.2-0.6,0.4c-0.3,0.1-0.6,0.3-1,0.4C15.1,3,14.6,3.1,14,3.2
		c-0.6,0.1-1.3,0.1-1.9,0.1c0,0-0.1,0-0.1,0.1c0,0-0.1,0.1-0.1,0.1l0.9,6.3c0.1,0.5,0.3,1,0.6,1.5c0.3,0.5,0.7,0.9,1.1,1.3
		c0.4,0.3,0.8,0.7,1.3,1c0.5,0.3,0.8,0.5,1.1,0.6c0.2,0.1,0.4,0.2,0.5,0.2L17.3,2C17.3,1.9,17.3,1.9,17.3,2z"/>
        <path  d="M22.8,3.4c0,0-0.1-0.1-0.1-0.1l0,0c-0.4,0-0.8,0-1.2,0c-0.4,0-0.7-0.1-1-0.1C20.2,3.1,20,3.1,19.7,3
		c-0.3-0.1-0.5-0.1-0.7-0.2c-0.2-0.1-0.4-0.1-0.6-0.2c-0.2-0.1-0.3-0.2-0.4-0.2c-0.1-0.1-0.2-0.1-0.3-0.2C17.6,2.1,17.5,2,17.5,2
		L17.4,2c0,0,0-0.1-0.1-0.1v12.5c0.1,0,0.3-0.1,0.5-0.3c0.2-0.1,0.6-0.4,1.1-0.7c0.5-0.3,0.9-0.6,1.3-1c0.4-0.3,0.8-0.8,1.1-1.2
		c0.3-0.5,0.5-1,0.6-1.4l0.9-6.3C22.9,3.5,22.8,3.5,22.8,3.4z"/>
    </g>
</svg>
