<svg version="1.1" id="图层_1" xmlns="http://www.w3.org/2000/svg" xmlns:xlink="http://www.w3.org/1999/xlink" x="0px" y="0px"
     viewBox="0 0 30.5 22" style="enable-background:new 0 0 30.5 22;" xml:space="preserve">
<style type="text/css">
	.st0{fill:#296F9D;}
</style>
    <path class="st0" d="M15.2,7.8C13.5,7.8,12,9.2,12,11s1.4,3.2,3.2,3.2c1.7,0,3.2-1.4,3.2-3.2C18.4,9.3,17,7.8,15.2,7.8z M10.5,5.2
	C10.5,4.5,9.9,4,9.2,4C8.9,4,8.6,4.1,8.4,4.3C6.6,6.1,5.6,8.5,5.6,11s1,4.9,2.7,6.6c0.5,0.5,1.2,0.5,1.7,0c0.5-0.5,0.5-1.2,0-1.7
	c-2.7-2.7-2.7-7.1,0-9.9C10.3,5.8,10.5,5.5,10.5,5.2z M2.4,11c0-3.4,1.3-6.5,3.7-8.9c0.5-0.5,0.5-1.2,0-1.7s-1.2-0.5-1.7,0
	C1.6,3.2,0,7,0,11s1.6,7.8,4.4,10.6c0.5,0.5,1.2,0.5,1.7,0c0.5-0.5,0.5-1.2,0-1.7C3.8,17.5,2.4,14.4,2.4,11z M22,4.4
	c-0.5-0.5-1.2-0.5-1.7,0s-0.5,1.2,0,1.7c1.3,1.3,2.1,3.1,2.1,4.9c0,1.8-0.7,3.6-2.1,4.9c-0.3,0.3-0.4,0.7-0.3,1.2
	c0.1,0.4,0.5,0.7,0.9,0.9c0.4,0.1,0.9,0,1.2-0.3c1.8-1.8,2.7-4.2,2.7-6.6S23.8,6.1,22,4.4z M29.4,5.3c-0.7-1.9-1.9-3.6-3.3-5
	c-0.5-0.5-1.2-0.5-1.7,0s-0.5,1.2,0,1.7c2.3,2.4,3.7,5.6,3.7,9s-1.3,6.5-3.7,8.9c-0.3,0.3-0.4,0.7-0.3,1.2c0.1,0.4,0.5,0.7,0.9,0.9
	c0.4,0.1,0.9,0,1.2-0.3C30.3,17.3,31.6,10.9,29.4,5.3z"/>
</svg>
