<?xml version="1.0" standalone="no"?><!DOCTYPE svg PUBLIC "-//W3C//DTD SVG 1.1//EN" "http://www.w3.org/Graphics/SVG/1.1/DTD/svg11.dtd"><svg t="1562383377520" class="icon" viewBox="0 0 1024 1024" version="1.1" xmlns="http://www.w3.org/2000/svg" p-id="4332" width="22" height="22" xmlns:xlink="http://www.w3.org/1999/xlink"><defs><style type="text/css"></style></defs><path d="M342.53243282 560.55135166C341.94864834 561.32972949 341.36486474 562.13243282 341.09729756 563.10540576L295.80540576 734.7621623C293.17837871 744.75945987 295.87837871 755.53513526 303.0297295 763.12432462 308.38108115 768.52432462 315.43513526 771.49189181 322.95135166 771.49189181 325.43243281 771.49189181 327.91351309 771.2 330.34594589 770.51891885L495.1918918 724.03513526C495.45945987 724.03513526 495.58108115 724.27837871 495.77567539 724.27837871 497.67297295 724.27837871 499.5459459 723.57297295 500.93243282 722.06486474L941.7378377 266.39729756C954.82432461 252.84864834 962 234.38648692 962 214.29459424 962 191.52702705 952.65945987 168.78378359 936.31351309 151.90270244L894.69459424 108.8C878.34864834 91.89459424 856.31081065 82.21351308 834.32162128 82.21351308 814.88648692 82.21351308 797.03243281 89.63243281 783.89729756 103.15675654L343.18918935 558.9702705C342.72702705 559.4081082 342.84864834 560.04054013 342.53243282 560.55135166M898.58648692 221.76216231L854.80270244 267.00540576 783.84864834 192.45135166 827 147.84054013C833.81081065 140.7378377 847.04324346 141.78378359 854.8756754 149.90810819L896.54324346 193.01081065C900.87297295 197.51081065 903.35405411 203.4702705 903.35405411 209.38108115 903.3297295 214.22162128 901.6756754 218.62432461 898.58648692 221.76216231M420.90540576 567.70270244L738.97027051 238.8378377 809.99729756 313.44054013 492.51621642 641.67297295 420.90540576 567.70270244 420.90540576 567.70270244 420.90540576 567.70270244ZM362.96486474 701.04864834L385.95135166 613.82162129 447.27297295 677.21081065 362.96486474 701.04864834 362.96486474 701.04864834 362.96486474 701.04864834ZM926.51081065 402.3459459C909.82432461 402.3459459 896.15405411 416.38108115 896.08108115 433.8702705L896.08108115 858.69459424C896.08108115 880.97567539 878.5918918 899.07297295 857.01621641 899.07297295L161.9243246 899.07297295C140.37297295 899.07297295 122.81081065 880.97567539 122.81081065 858.69459424L122.81081065 165.28108115C122.81081065 142.97567539 140.37297295 124.87837872 161.9243246 124.87837872L609.58918935 124.87837872C626.37297295 124.87837872 639.99459424 110.7702705 639.99459424 93.42702705 639.99459424 76.10810819 626.37297295 62 609.58918935 62L157.27837871 62C104.7621623 62 62 106.17297295 62 160.51351308L62 863.51081065C62 917.85135166 104.7621623 962 157.27837871 962L861.61351309 962C914.17837871 962 956.89189181 917.85135166 956.89189181 863.51081065L956.89189181 433.65135166C956.84324346 416.38108115 943.19729756 402.3459459 926.51081065 402.3459459" fill="#8f9599" p-id="4333"></path></svg>