<svg viewBox="0 0 25 25">
    <path  d="M22.6,6.5l-4,2v-2c0-1.1-0.9-2-2-2H2.4c-1.1,0-2,0.9-2,2v12.1c0,1.1,0.9,2,2,2h14.2c1.1,0,2-0.9,2-2v-2l4,2
	c1.1,0,2-0.9,2-2V8.5C24.6,7.4,23.7,6.5,22.6,6.5z M17,19.1H1.9V6L17,6V19.1z M23.1,16.9l-3.6-1.6c-0.3-0.1-0.6-0.2-0.9-0.2v-5
	c0.3,0,0.6-0.1,0.9-0.2l3.6-1.9V16.9z"/>
    <path  d="M10.9,17.8c-0.1,0-0.1,0-0.2-0.1c-0.1-0.1-0.1-0.1-0.1-0.2c0-0.1,0.1-0.3,0.3-0.3l1.8,0c0.1,0,0.3-0.1,0.3-0.2
	l0.1-2.5c0,0,0,0,0,0v0c0,0,0,0,0,0c0-0.1,0-0.1,0.1-0.2c0.1-0.1,0.1-0.1,0.2-0.1l0.8-0.1c0,0,0.2,0,0.3-0.1c0.1,0,0.2-0.1,0.2-0.3
	c0-0.1-0.2-0.4-0.2-0.5c-0.1-0.1-0.1-0.2-0.2-0.3c-0.1-0.1-0.2-0.3-0.3-0.4c-0.1-0.1-0.1-0.1-0.2-0.2c-0.1-0.1-0.1-0.1-0.1-0.2v0
	c0,0,0,0,0,0v0c0-1.1-0.4-2.2-1.2-3c-0.8-0.8-1.9-1.3-3-1.3H9.2C6.9,7.7,5,9.6,5,11.9c0,0.1-0.1,0.3-0.3,0.3c-0.2,0-0.3-0.1-0.3-0.3
	c0-2.6,2.2-4.7,4.8-4.7h0.1c2.6,0,4.7,2.2,4.7,4.8v0l0,0c0,0,0,0.1,0.1,0.1c0.1,0.2,0.3,0.3,0.4,0.5c0.1,0.1,0.2,0.2,0.2,0.3
	c0.2,0.4,0.3,0.6,0.3,0.8c0,0.4-0.3,0.6-0.5,0.7c-0.2,0.1-0.4,0.1-0.4,0.1l-0.6,0l-0.1,2.4c0,0.4-0.4,0.8-0.8,0.8
	C12.6,17.9,10.9,17.8,10.9,17.8z"/>
    <path  d="M9.2,11.7c-1.1,0-1.4-0.2-1.4-0.8c0-0.6,0.7-1.1,1.5-1.1c0.8,0,1.4,0.5,1.4,1.1C10.7,11.6,10.3,11.7,9.2,11.7z
	 M9.3,10.2c-0.6,0-1.1,0.3-1.1,0.8c0,0.3,0.3,0.4,1.1,0.4c0.8,0,1.1-0.1,1.1-0.4C10.3,10.6,9.8,10.2,9.3,10.2z"/>
    <g>
        <path  d="M17.9,9.9c0,0-0.1,0.1-0.2,0.1c-0.1,0.1-0.3,0.2-0.6,0.4c-0.3,0.1-0.6,0.3-1,0.4c-0.4,0.1-0.9,0.2-1.5,0.3
		c-0.6,0.1-1.3,0.1-1.9,0.1c0,0-0.1,0-0.1,0.1c0,0-0.1,0.1-0.1,0.1l0.9,6.3c0.1,0.5,0.3,1,0.6,1.5c0.3,0.5,0.7,0.9,1.1,1.3
		c0.4,0.3,0.8,0.7,1.3,1c0.5,0.3,0.8,0.5,1.1,0.6c0.2,0.1,0.4,0.2,0.5,0.2L17.9,9.9C18,9.9,17.9,9.9,17.9,9.9z"/>
        <path  d="M23.5,11.4c0,0-0.1-0.1-0.1-0.1l0,0c-0.4,0-0.8,0-1.2,0c-0.4,0-0.7-0.1-1-0.1c-0.3-0.1-0.6-0.1-0.8-0.2
		c-0.3-0.1-0.5-0.1-0.7-0.2c-0.2-0.1-0.4-0.1-0.6-0.2c-0.2-0.1-0.3-0.2-0.4-0.2c-0.1-0.1-0.2-0.1-0.3-0.2c-0.1-0.1-0.1-0.1-0.2-0.1
		l-0.1-0.1c0,0,0-0.1-0.1-0.1v12.5c0.1,0,0.3-0.1,0.5-0.3c0.2-0.1,0.6-0.4,1.1-0.7c0.5-0.3,0.9-0.6,1.3-1c0.4-0.3,0.8-0.8,1.1-1.2
		c0.3-0.5,0.5-1,0.6-1.4l0.9-6.3C23.5,11.5,23.5,11.4,23.5,11.4z"/>
    </g>
</svg>
