<?xml version="1.0" standalone="no"?><!DOCTYPE svg PUBLIC "-//W3C//DTD SVG 1.1//EN"
        "http://www.w3.org/Graphics/SVG/1.1/DTD/svg11.dtd">
<svg t="1562398868563" class="icon" viewBox="0 0 1024 1024" version="1.1" xmlns="http://www.w3.org/2000/svg"
     p-id="36135" xmlns:xlink="http://www.w3.org/1999/xlink" width="22" height="22">
    <defs>
        <style type="text/css"></style>
    </defs>
    <path d="M819.712 968.192H204.288c-84.48 0-153.088-68.608-153.088-153.088V208.896c0-84.48 68.608-153.088 153.088-153.088h615.424c84.48 0 153.088 68.608 153.088 153.088v606.208c0 84.48-68.608 153.088-153.088 153.088zM204.288 115.712c-51.712 0-93.184 41.984-93.184 93.184v606.208c0 51.712 41.984 93.184 93.184 93.184h615.424c51.712 0 93.184-41.984 93.184-93.184V208.896c0-51.712-41.984-93.184-93.184-93.184H204.288z m602.624 397.824H217.088V55.808h590.336l-0.512 457.728zM276.48 453.632h471.04v-337.92H276.48v337.92z m323.584-250.368h59.904v199.168h-59.904V203.264z"
          p-id="36136" fill="#005bac"></path>
</svg>