<svg viewBox="0 0 18.2 18.2">
    <path d="M5.7,10.1C5.7,10.1,5.7,10.1,5.7,10.1l-0.9,3.5c-0.1,0.2,0,0.4,0.1,0.6c0.1,0.1,0.2,0.2,0.4,0.2
	c0,0,0.1,0,0.1,0l3.3-0.9c0,0,0,0,0,0c0,0,0.1,0,0.1,0l8.8-9.1c0.3-0.3,0.4-0.6,0.4-1c0-0.5-0.2-0.9-0.5-1.2L16.7,1
	c-0.3-0.3-0.8-0.5-1.2-0.5c-0.4,0-0.7,0.1-1,0.4L5.7,10.1C5.7,10,5.7,10.1,5.7,10.1 M16.8,3.3l-0.9,0.9l-1.4-1.5l0.9-0.9
	c0.1-0.1,0.4-0.1,0.6,0l0.8,0.9c0.1,0.1,0.1,0.2,0.1,0.3C16.9,3.1,16.9,3.2,16.8,3.3 M7.3,10.2l6.4-6.6l1.4,1.5l-6.3,6.6L7.3,10.2
	L7.3,10.2L7.3,10.2z M6.1,12.9l0.5-1.7l1.2,1.3L6.1,12.9L6.1,12.9L6.1,12.9z M17.4,6.9c-0.3,0-0.6,0.3-0.6,0.6V16
	c0,0.4-0.3,0.8-0.8,0.8H2.1c-0.4,0-0.8-0.4-0.8-0.8V2.2c0-0.4,0.4-0.8,0.8-0.8h9c0.3,0,0.6-0.3,0.6-0.6c0-0.3-0.3-0.6-0.6-0.6H2
	c-1.1,0-1.9,0.9-1.9,2v14.1c0,1.1,0.9,2,1.9,2h14.1c1.1,0,1.9-0.9,1.9-2V7.5C18,7.2,17.7,6.9,17.4,6.9"/>
</svg>
