<svg viewBox="0 0 22 22">
    <path  d="M18.1,5.6h-6.9l-0.6-0.8C10.1,3.7,9.9,3.2,9,3.2H3.2c-0.9,0-1.7,0.7-1.7,1.7v12.4c0,0.9,0.7,1.7,1.7,1.7h14.9
	c0.9,0,1.6-0.7,1.6-1.7V7.3C19.7,6.4,19,5.6,18.1,5.6z M9.8,15.4c0,0.1-0.1,0.3-0.3,0.3c-0.1,0-0.3-0.1-0.3-0.3V9.1l-2,2
	c-0.1,0.1-0.3,0.1-0.4,0c-0.1-0.1-0.1-0.3,0-0.4l2.4-2.4c0.1-0.1,0.2-0.1,0.3-0.1c0.1,0,0.2,0.1,0.2,0.2V15.4z M14.4,13.2L12,15.6
	c0,0-0.1,0.1-0.2,0.1c0,0-0.1,0-0.1,0c-0.1,0-0.2-0.1-0.2-0.2V8.5c0-0.1,0.1-0.3,0.3-0.3c0.1,0,0.3,0.1,0.3,0.3v6.3l2-2
	c0.1-0.1,0.3-0.1,0.4,0C14.5,12.9,14.5,13.1,14.4,13.2z"/>
</svg>
