<svg viewBox="0 0 20.3 19.8">
    <path d="M15.7,17c0,0.7-0.5,1.2-1.2,1.2H5.7c-0.7,0-1.2-0.5-1.2-1.2V4h11.2C15.7,4,15.7,17,15.7,17z M7,1.8
	c0-0.1,0.1-0.3,0.3-0.3h5.9c0.1,0,0.2,0.1,0.2,0.3v0.7H7V1.8z M19.4,2.6h-4.6V1.8c0-0.9-0.8-1.7-1.7-1.7H7.2c-0.9,0-1.7,0.8-1.7,1.7
	v0.7H0.9c-0.4,0-0.7,0.3-0.7,0.7S0.5,4,0.9,4H3V17c0,1.5,1.2,2.7,2.7,2.7h0h8.8c1.5,0,2.7-1.2,2.7-2.7V4h2.2c0.4,0,0.7-0.3,0.7-0.7
	S19.8,2.6,19.4,2.6z M10.1,16c0.4,0,0.7-0.3,0.7-0.7V7.4c0-0.4-0.3-0.7-0.7-0.7C9.7,6.7,9.4,7,9.4,7.4v7.8C9.4,15.6,9.7,16,10.1,16
	 M6.7,16c0.4,0,0.7-0.3,0.7-0.7V7.4c0-0.4-0.3-0.7-0.7-0.7C6.3,6.7,6,7,6,7.4v7.8C6,15.6,6.3,16,6.7,16 M13.5,16
	c0.4,0,0.7-0.3,0.7-0.7V7.4c0-0.4-0.3-0.7-0.7-0.7c-0.4,0-0.7,0.3-0.7,0.7v7.8C12.8,15.6,13.1,16,13.5,16"/>
</svg>
