<svg viewBox="0 0 1024 1024">
    <path d="M729.6 264.533333l72.533333 42.666667-234.666666 405.333333 72.533333 42.666667 277.333333-482.133333-221.866666-128-273.066667 482.133333 72.533333 42.666667 234.666667-405.333334z m42.666667-72.533333l42.666666-72.533333 72.533334 42.666666 72.533333 42.666667 42.666667-72.533333-221.866667-128-128 221.866666 183.466667 106.666667 42.666666-72.533333-106.666666-68.266667zM426.666667 878.933333l-4.266667-247.466666 221.866667 128-217.6 119.466666zM273.066667 938.666667V256h256V170.666667h-341.333334v853.333333h469.333334v-85.333333h-384z m298.666666 0v85.333333h384V469.333333h-85.333333v469.333334h-298.666667z m-85.333333-853.333334V0H17.066667v810.666667h85.333333V85.333333h384z"></path>
</svg>