<svg viewBox="0 0 1024 1024">
    <path d="M403.616 862.848c-13.248 0-24-10.752-24-24L379.616 243.136l-184.512 184.512c-9.376 9.376-24.576 9.376-33.952 0s-9.376-24.576 0-33.952l225.472-225.472c6.88-6.88 17.184-8.896 26.144-5.216 8.96 3.712 14.816 12.48 14.816 22.176l0 653.664C427.616 852.096 416.896 862.848 403.616 862.848z"></path>
    <path d="M620.352 862.848c-3.104 0-6.208-0.608-9.184-1.824-8.96-3.712-14.816-12.48-14.816-22.176L596.352 185.184c0-13.248 10.752-24 24-24s24 10.752 24 24l0 595.712 184.544-184.544c9.376-9.376 24.576-9.376 33.952 0s9.376 24.576 0 33.952l-225.504 225.504C632.736 860.416 626.592 862.848 620.352 862.848z"></path>
</svg>