<svg viewBox="0 0 1821 1024">
    <path d="M1366.533333 835.333333h-97.466666c-7.333333 0-13.333333-6-13.333334-13.333333s6-13.333333 13.333334-13.333333h84.133333v-570.666667h-84.133333c-7.333333 0-13.333333-6-13.333334-13.333333s6-13.333333 13.333334-13.333334h97.466666c7.333333 0 13.333333 6 13.333334 13.333334v597.333333c0 7.333333-6 13.333333-13.333334 13.333333z m0 0"
    ></path>
    <path d="M1366.533333 536.666667h-97.466666c-7.333333 0-13.333333-6-13.333334-13.333334s6-13.333333 13.333334-13.333333h97.466666c7.333333 0 13.333333 6 13.333334 13.333333 0 7.466667-6 13.333333-13.333334 13.333334z m0 0M1119.333333 308.933333H619.866667c-20.8 0-41.2-6-58.8-17.2-17.066667-10.933333-30.8-26.266667-39.733334-44.533333-2.266667-4.533333-1.733333-9.866667 1.333334-13.866667s8-6 12.933333-5.066666c4.666667 0.8 9.333333 1.2 14.133333 1.2h499.466667c28.666667 0 55.333333-14.666667 70.533333-38.933334 15.2-24.266667 16.8-54.666667 4.133334-80.4-2.266667-4.533333-1.733333-9.866667 1.333333-13.866666s8-6 12.933333-5.2c52.533333 9.2 90.8 54.8 90.933334 108.133333-0.133333 60.533333-49.066667 109.6-109.733334 109.733333z m-559.733333-52.8c15.733333 16.533333 37.466667 26 60.266667 26.133334h499.466666c32.4 0 61.866667-18.8 75.466667-48.133334 13.6-29.333333 8.8-64-12.133333-88.666666-7.2-8.4-15.866667-15.333333-25.733334-20.4 6.266667 32.133333-2.133333 65.466667-22.933333 90.8-20.8 25.333333-51.866667 40-84.666667 40.133333H559.6z m0 0"
    ></path>
    <path d="M1049.2 256.133333H549.733333c-60.533333 0-109.733333-49.066667-109.733333-109.733333 0-60.533333 49.066667-109.733333 109.733333-109.733333h499.466667c60.533333 0 109.733333 49.066667 109.733333 109.733333s-49.066667 109.733333-109.733333 109.733333zM549.733333 63.333333c-29.733333 0-57.066667 15.866667-71.866666 41.466667a83.253333 83.253333 0 0 0 0 83.066667c14.8 25.733333 42.266667 41.466667 71.866666 41.466666h499.466667c45.866667 0 83.066667-37.2 83.066667-83.066666s-37.2-83.066667-83.066667-83.066667H549.733333z m0 0"
    ></path>
    <path d="M577.466667 203.333333c-31.466667 0-56.933333-25.466667-56.933334-56.933333s25.466667-56.933333 56.933334-56.933333 56.933333 25.466667 56.933333 56.933333-25.466667 56.933333-56.933333 56.933333z m0-87.2c-12.266667 0-23.333333 7.333333-28 18.666667s-2.133333 24.4 6.533333 33.066667 21.733333 11.2 33.066667 6.533333 18.666667-15.733333 18.666666-28c0-16.666667-13.6-30.266667-30.266666-30.266667z m400 43.6H840.8c-7.333333 0-13.333333-6-13.333333-13.333333s6-13.333333 13.333333-13.333333h136.666667c7.333333 0 13.333333 6 13.333333 13.333333 0 7.466667-6 13.333333-13.333333 13.333333z m0 0M1119.333333 632.4H619.866667c-20.8 0-41.2-6-58.8-17.2-17.066667-10.933333-30.8-26.266667-39.733334-44.533333-2.266667-4.533333-1.733333-9.866667 1.333334-13.866667s8-6 12.933333-5.066667c4.666667 0.8 9.333333 1.2 14.133333 1.2h499.466667c28.666667 0 55.333333-14.666667 70.533333-38.933333 15.2-24.266667 16.8-54.666667 4.133334-80.4-2.266667-4.533333-1.733333-9.866667 1.333333-13.866667s8-6 12.933333-5.2c52.533333 9.2 90.8 54.8 90.933334 108.133334-0.133333 60.533333-49.066667 109.6-109.733334 109.733333z m-559.733333-52.8c15.733333 16.533333 37.466667 26 60.266667 26.133333h499.466666c32.4 0 61.866667-18.8 75.466667-48.133333 13.6-29.333333 8.8-64-12.133333-88.666667-7.2-8.4-15.866667-15.333333-25.733334-20.4 6.266667 32.133333-2.133333 65.466667-22.933333 90.8-20.8 25.333333-51.866667 40-84.666667 40.133334H559.6z m0 0"
    ></path>
    <path d="M1049.2 579.6H549.733333c-60.533333 0-109.733333-49.066667-109.733333-109.733333s49.066667-109.733333 109.733333-109.733334h499.466667c60.533333 0 109.733333 49.066667 109.733333 109.733334s-49.066667 109.733333-109.733333 109.733333zM549.733333 386.8c-45.866667 0-83.066667 37.2-83.066666 83.066667s37.2 83.066667 83.066666 83.066666h499.466667c45.866667 0 83.066667-37.2 83.066667-83.066666s-37.2-83.066667-83.066667-83.066667H549.733333z m0 0"
    ></path>
    <path d="M577.466667 526.8c-31.466667 0-56.933333-25.466667-56.933334-56.933333s25.466667-56.933333 56.933334-56.933334 56.933333 25.466667 56.933333 56.933334-25.466667 56.933333-56.933333 56.933333z m0-87.2c-12.266667 0-23.333333 7.333333-28 18.666667s-2.133333 24.4 6.533333 33.066666 21.733333 11.2 33.066667 6.533334 18.666667-15.733333 18.666666-28c0-16.666667-13.466667-30.266667-30.266666-30.266667z m400 43.6H840.8c-7.333333 0-13.333333-6-13.333333-13.333333s6-13.333333 13.333333-13.333334h136.666667c7.333333 0 13.333333 6 13.333333 13.333334s-6 13.333333-13.333333 13.333333z m0 0M1119.333333 989.333333H619.866667c-20.8 0-41.2-6-58.8-17.2-17.066667-10.933333-30.8-26.266667-39.733334-44.533333-2.266667-4.533333-1.733333-9.866667 1.333334-13.866667s8-6 12.933333-5.066666c4.666667 0.8 9.333333 1.2 14.133333 1.2h499.466667c28.666667 0 55.333333-14.666667 70.533333-38.933334 15.2-24.266667 16.8-54.666667 4.133334-80.4-2.133333-4.533333-1.733333-9.866667 1.333333-13.866666 2.933333-4 8-6 12.933333-5.2 40.4 6.933333 73.466667 35.866667 85.866667 74.933333 12.4 39.066667 1.866667 81.733333-27.066667 110.666667-20.533333 20.666667-48.4 32.266667-77.6 32.266666z m-559.733333-52.8c15.733333 16.533333 37.466667 26 60.266667 26.133334h499.466666c32.4 0 61.866667-18.8 75.466667-48.133334 13.6-29.333333 8.8-64-12.133333-88.666666-7.2-8.4-15.866667-15.333333-25.733334-20.4 6.266667 32.133333-2.133333 65.466667-22.933333 90.8-20.8 25.333333-51.866667 40-84.666667 40.133333H559.6z m0 0"
    ></path>
    <path d="M1049.2 936.533333H549.733333c-60.533333 0-109.733333-49.066667-109.733333-109.733333s49.066667-109.733333 109.733333-109.733333h499.466667c60.533333 0 109.733333 49.066667 109.733333 109.733333s-49.066667 109.733333-109.733333 109.733333zM549.733333 743.733333c-45.866667 0-83.066667 37.2-83.066666 83.066667s37.2 83.066667 83.066666 83.066667h499.466667c45.866667 0 83.066667-37.2 83.066667-83.066667s-37.2-83.066667-83.066667-83.066667H549.733333z m0 0"
    ></path>
    <path d="M577.466667 883.733333c-31.466667 0-56.933333-25.466667-56.933334-56.933333s25.466667-56.933333 56.933334-56.933333 56.933333 25.466667 56.933333 56.933333-25.466667 56.933333-56.933333 56.933333z m0-87.2c-12.266667 0-23.333333 7.333333-28 18.666667s-2.133333 24.4 6.533333 33.066667 21.733333 11.2 33.066667 6.533333 18.666667-15.733333 18.666666-28c0-16.8-13.466667-30.266667-30.266666-30.266667z m400 43.6H840.8c-7.333333 0-13.333333-6-13.333333-13.333333s6-13.333333 13.333333-13.333333h136.666667c7.333333 0 13.333333 6 13.333333 13.333333s-6 13.333333-13.333333 13.333333z m0 0"
    ></path>
</svg>