<svg viewBox="0 0 20 20">
    <path d="M18.5,14.6h-17V5.4h16.9v9.2H18.5z M2.3,13.8h15.4V6.2H2.3V13.8z"/>
    <path  d="M1.5,0.4h16.9c0.3,0,0.4,0.1,0.4,0.4v4.6c0,0.3-0.1,0.4-0.4,0.4H1.5c-0.3,0-0.4-0.1-0.4-0.4V0.8
	C1.2,0.5,1.3,0.4,1.5,0.4L1.5,0.4z"/>
    <path d="M18.5,6.2h-17c-0.4,0-0.8-0.3-0.8-0.8V0.8C0.8,0.3,1.1,0,1.5,0h16.9c0.2,0,0.4,0.1,0.5,0.2s0.2,0.3,0.2,0.5v4.6
	C19.2,5.8,18.9,6.2,18.5,6.2L18.5,6.2z M1.5,0.8v4.6h16.9V0.8H1.5z"/>
    <path d="M13.5,3.5c-0.3,0-0.4-0.1-0.4-0.4s0.1-0.4,0.4-0.4c0.3,0,0.4,0.1,0.4,0.4C13.8,3.3,13.7,3.5,13.5,3.5L13.5,3.5z
	"/>
    <path d="M15,3.5c-0.3,0-0.4-0.1-0.4-0.4s0.1-0.4,0.4-0.4c0.3,0,0.4,0.1,0.4,0.4C15.4,3.3,15.3,3.5,15,3.5L15,3.5z"/>
    <path d="M16.5,3.5c-0.3,0-0.4-0.1-0.4-0.4s0.1-0.4,0.4-0.4s0.4,0.1,0.4,0.4C16.9,3.3,16.8,3.5,16.5,3.5L16.5,3.5z"/>
    <path d="M6.2,3.5H3.8c-0.3,0-0.4-0.1-0.4-0.4s0.1-0.4,0.4-0.4h2.3c0.3,0,0.4,0.1,0.4,0.4C6.5,3.3,6.4,3.5,6.2,3.5
	L6.2,3.5z"/>
    <path  d="M1.5,7.4h16.9c0.3,0,0.4,0.1,0.4,0.4v4.6c0,0.3-0.1,0.4-0.4,0.4H1.5c-0.3,0-0.4-0.1-0.4-0.4V7.8
	C1.2,7.5,1.3,7.4,1.5,7.4L1.5,7.4z"/>
    <path d="M18.5,13.1h-17c-0.4,0-0.8-0.3-0.8-0.8V7.8C0.8,7.3,1.1,7,1.5,7h16.9c0.2,0,0.4,0.1,0.5,0.2
	c0.1,0.1,0.2,0.3,0.2,0.5v4.6C19.2,12.8,18.9,13.1,18.5,13.1L18.5,13.1z M1.5,7.8v4.6h16.9V7.8H1.5z"/>
    <path d="M13.5,10.5c-0.3,0-0.4-0.1-0.4-0.4s0.1-0.4,0.4-0.4c0.3,0,0.4,0.1,0.4,0.4C13.8,10.3,13.7,10.5,13.5,10.5
	L13.5,10.5z"/>
    <path d="M15,10.5c-0.3,0-0.4-0.1-0.4-0.4s0.1-0.4,0.4-0.4c0.3,0,0.4,0.1,0.4,0.4C15.4,10.3,15.3,10.5,15,10.5L15,10.5z"
    />
    <path d="M16.5,10.5c-0.3,0-0.4-0.1-0.4-0.4s0.1-0.4,0.4-0.4s0.4,0.1,0.4,0.4C16.9,10.3,16.8,10.5,16.5,10.5L16.5,10.5z"
    />
    <path d="M6.2,10.5H3.8c-0.3,0-0.4-0.1-0.4-0.4s0.1-0.4,0.4-0.4h2.3c0.3,0,0.4,0.1,0.4,0.4C6.5,10.3,6.4,10.5,6.2,10.5
	L6.2,10.5z"/>
    <path  d="M1.5,14.2h16.9c0.3,0,0.4,0.1,0.4,0.4v4.6c0,0.3-0.1,0.4-0.4,0.4H1.5c-0.3,0-0.4-0.1-0.4-0.4v-4.6
	C1.2,14.4,1.3,14.2,1.5,14.2L1.5,14.2z"/>
    <path d="M18.5,20h-17c-0.4,0-0.8-0.3-0.8-0.8v-4.6c0-0.2,0.1-0.4,0.2-0.5s0.3-0.2,0.5-0.2h16.9c0.4,0,0.8,0.3,0.8,0.8
	v4.6C19.2,19.7,18.9,20,18.5,20L18.5,20z M1.5,14.6v4.6h16.9v-4.6H1.5z"/>
    <path d="M13.5,17.3c-0.3,0-0.4-0.1-0.4-0.4s0.1-0.4,0.4-0.4c0.3,0,0.4,0.1,0.4,0.4C13.8,17.2,13.7,17.3,13.5,17.3
	L13.5,17.3z"/>
    <path d="M15,17.3c-0.3,0-0.4-0.1-0.4-0.4s0.1-0.4,0.4-0.4c0.3,0,0.4,0.1,0.4,0.4C15.4,17.2,15.3,17.3,15,17.3L15,17.3z"
    />
    <path d="M16.5,17.3c-0.3,0-0.4-0.1-0.4-0.4s0.1-0.4,0.4-0.4s0.4,0.1,0.4,0.4C16.9,17.2,16.8,17.3,16.5,17.3L16.5,17.3z"
    />
    <path d="M6.2,17.3H3.8c-0.3,0-0.4-0.1-0.4-0.4s0.1-0.4,0.4-0.4h2.3c0.3,0,0.4,0.1,0.4,0.4C6.5,17.2,6.4,17.3,6.2,17.3
	L6.2,17.3z"/>
</svg>
