<?xml version="1.0" encoding="utf-8"?>
<svg version="1.1" id="图层_1" xmlns="http://www.w3.org/2000/svg" xmlns:xlink="http://www.w3.org/1999/xlink" x="0px" y="0px"
	 viewBox="0 0 20 20" style="enable-background:new 0 0 20 20;" xml:space="preserve">
<style type="text/css">
	.st0{fill:#FFFFFF;}
	.st1{fill:#005BAC;}
	.st2{fill:#D1EBF2;}
</style>
<rect x="1.9" y="5.8" class="st0" width="16.2" height="8.5"/>
<path class="st1" d="M18.5,14.6H1.5V5.4h16.9V14.6z M2.3,13.8h15.4V6.2H2.3V13.8z M2.3,13.8"/>
<path class="st0" d="M1.5,0.4h16.9c0.3,0,0.4,0.1,0.4,0.4v4.6c0,0.3-0.1,0.4-0.4,0.4H1.5c-0.3,0-0.4-0.1-0.4-0.4V0.8
	C1.2,0.5,1.3,0.4,1.5,0.4L1.5,0.4z M1.5,0.4"/>
<path class="st1" d="M18.5,6.2H1.5c-0.4,0-0.8-0.3-0.8-0.8V0.8C0.8,0.3,1.1,0,1.5,0h16.9c0.2,0,0.4,0.1,0.5,0.2
	c0.1,0.1,0.2,0.3,0.2,0.5v4.6C19.2,5.8,18.9,6.2,18.5,6.2L18.5,6.2z M1.5,0.8v4.6h16.9V0.8H1.5z M1.5,0.8"/>
<path class="st1" d="M13.5,3.5c-0.3,0-0.4-0.1-0.4-0.4c0-0.3,0.1-0.4,0.4-0.4c0.3,0,0.4,0.1,0.4,0.4C13.8,3.3,13.7,3.5,13.5,3.5
	L13.5,3.5z M13.5,3.5"/>
<path class="st1" d="M15,3.5c-0.3,0-0.4-0.1-0.4-0.4c0-0.3,0.1-0.4,0.4-0.4c0.3,0,0.4,0.1,0.4,0.4C15.4,3.3,15.3,3.5,15,3.5L15,3.5z
	 M15,3.5"/>
<path class="st1" d="M16.5,3.5c-0.3,0-0.4-0.1-0.4-0.4c0-0.3,0.1-0.4,0.4-0.4c0.3,0,0.4,0.1,0.4,0.4C16.9,3.3,16.8,3.5,16.5,3.5
	L16.5,3.5z M16.5,3.5"/>
<path class="st1" d="M6.2,3.5H3.8c-0.3,0-0.4-0.1-0.4-0.4c0-0.3,0.1-0.4,0.4-0.4h2.3c0.3,0,0.4,0.1,0.4,0.4C6.5,3.3,6.4,3.5,6.2,3.5
	L6.2,3.5z M6.2,3.5"/>
<path class="st2" d="M1.5,7.3h16.9c0.3,0,0.4,0.1,0.4,0.4v4.6c0,0.3-0.1,0.4-0.4,0.4H1.5c-0.3,0-0.4-0.1-0.4-0.4V7.7
	C1.2,7.4,1.3,7.3,1.5,7.3L1.5,7.3z M1.5,7.3"/>
<path class="st1" d="M18.5,13.1H1.5c-0.2,0-0.4-0.1-0.5-0.2c-0.1-0.1-0.2-0.3-0.2-0.5V7.7c0-0.2,0.1-0.4,0.2-0.5
	C1.1,7,1.3,6.9,1.5,6.9h16.9c0.2,0,0.4,0.1,0.5,0.2c0.1,0.1,0.2,0.3,0.2,0.5v4.6c0,0.2-0.1,0.4-0.2,0.5C18.9,13,18.7,13.1,18.5,13.1
	L18.5,13.1z M1.5,7.7v4.6h16.9V7.7H1.5z M1.5,7.7"/>
<path class="st1" d="M13.5,10.4c-0.3,0-0.4-0.1-0.4-0.4c0-0.3,0.1-0.4,0.4-0.4c0.3,0,0.4,0.1,0.4,0.4C13.8,10.3,13.7,10.4,13.5,10.4
	L13.5,10.4z M13.5,10.4"/>
<path class="st1" d="M15,10.4c-0.3,0-0.4-0.1-0.4-0.4c0-0.3,0.1-0.4,0.4-0.4c0.3,0,0.4,0.1,0.4,0.4C15.4,10.3,15.3,10.4,15,10.4
	L15,10.4z M15,10.4"/>
<path class="st1" d="M16.5,10.4c-0.3,0-0.4-0.1-0.4-0.4c0-0.3,0.1-0.4,0.4-0.4c0.3,0,0.4,0.1,0.4,0.4C16.9,10.3,16.8,10.4,16.5,10.4
	L16.5,10.4z M16.5,10.4"/>
<path class="st1" d="M6.2,10.4H3.8c-0.3,0-0.4-0.1-0.4-0.4c0-0.3,0.1-0.4,0.4-0.4h2.3c0.3,0,0.4,0.1,0.4,0.4
	C6.5,10.3,6.4,10.4,6.2,10.4L6.2,10.4z M6.2,10.4"/>
<path class="st2" d="M1.5,14.2h16.9c0.3,0,0.4,0.1,0.4,0.4v4.6c0,0.3-0.1,0.4-0.4,0.4H1.5c-0.3,0-0.4-0.1-0.4-0.4v-4.6
	C1.2,14.4,1.3,14.2,1.5,14.2L1.5,14.2z M1.5,14.2"/>
<path class="st1" d="M18.5,20H1.5c-0.4,0-0.8-0.3-0.8-0.8v-4.6c0-0.2,0.1-0.4,0.2-0.5c0.1-0.1,0.3-0.2,0.5-0.2h16.9
	c0.4,0,0.8,0.3,0.8,0.8v4.6C19.2,19.7,18.9,20,18.5,20L18.5,20z M1.5,14.6v4.6h16.9v-4.6H1.5z M1.5,14.6"/>
<path class="st1" d="M13.5,17.3c-0.3,0-0.4-0.1-0.4-0.4c0-0.3,0.1-0.4,0.4-0.4c0.3,0,0.4,0.1,0.4,0.4C13.8,17.2,13.7,17.3,13.5,17.3
	L13.5,17.3z M13.5,17.3"/>
<path class="st1" d="M15,17.3c-0.3,0-0.4-0.1-0.4-0.4c0-0.3,0.1-0.4,0.4-0.4c0.3,0,0.4,0.1,0.4,0.4C15.4,17.2,15.3,17.3,15,17.3
	L15,17.3z M15,17.3"/>
<path class="st1" d="M16.5,17.3c-0.3,0-0.4-0.1-0.4-0.4c0-0.3,0.1-0.4,0.4-0.4c0.3,0,0.4,0.1,0.4,0.4C16.9,17.2,16.8,17.3,16.5,17.3
	L16.5,17.3z M16.5,17.3"/>
<path class="st1" d="M6.2,17.3H3.8c-0.3,0-0.4-0.1-0.4-0.4c0-0.3,0.1-0.4,0.4-0.4h2.3c0.3,0,0.4,0.1,0.4,0.4
	C6.5,17.2,6.4,17.3,6.2,17.3L6.2,17.3z M6.2,17.3"/>
</svg>
