<svg viewBox="0 0 20 20">
    <g>
        <path d="M18.7,6.5H1.3C0.7,6.5,0.2,6,0.2,5.4C0.5,5,3.5,2.7,3.5,2.7s1.1-1.1,1.7-1.1h9.6c0.6,0,1.7,1.1,1.7,1.1
		s3,2.2,3.3,2.8C19.8,6,19.3,6.5,18.7,6.5z"/>
        <g>
            <path  d="M3.7,13.3C3.7,11,4.9,8.9,7,8.1H0.8v10.5H7C4.9,17.7,3.7,15.7,3.7,13.3z"/>
            <path  d="M13,8.1c2.1,0.9,3.3,2.9,3.3,5.3c0,2.4-1.2,4.4-3.3,5.3h6.2V8.1H13z"/>
        </g>
        <circle  cx="10" cy="13.3" r="5"/>
        <circle cx="10" cy="13.3" r="3.2"/>
    </g>
</svg>
