<svg viewBox="0 0 1026 1024">
    <path d="M679.905138 513.422222c71.111111-49.777778 118.044444-133.688889 118.044444-227.555556 0-153.6-125.155556-278.755556-278.755556-278.755556-153.6 0-278.755556 125.155556-278.755556 278.755556 0 93.866667 46.933333 177.777778 119.466667 227.555556C163.638471 577.422222 14.305138 756.622222 0.082916 974.222222c-1.422222 21.333333 15.644444 41.244444 36.977778 42.666667 1.422222 0 1.422222 0 2.844444 0 21.333333 0 38.4-15.644444 39.822222-36.977778 15.644444-231.822222 209.066667-412.444444 440.888889-412.444444 44.088889-4.266667 66.844444-2.844444 88.177778-12.8C628.705138 546.133333 651.460693 536.177778 679.905138 513.422222zM321.505138 285.866667c0-109.511111 89.6-199.111111 199.111111-199.111111 109.511111 0 199.111111 89.6 199.111111 199.111111 0 109.511111-89.6 199.111111-199.111111 199.111111C411.105138 483.555556 321.505138 395.377778 321.505138 285.866667z"></path>
</svg>