<svg viewBox="0 0 1024 1024">
    <path d="M841.8 262.3H522.7l-26.6-38.4c-27.2-50.6-34.4-76.8-76.8-76.8h-269c-42.4 0-76.8 34.4-76.8 76.8v576.3c0 42.4 34.4 76.8 76.8 76.8h691.5c42.4 0 76.8-34.4 76.8-76.8v-461c0-42.5-34.4-76.9-76.8-76.9zM669.1 596.5H542.3v126.8c0 23.2-19 42.3-42.3 42.3-23.2 0-42.3-19-42.3-42.3V596.5H331c-23.2 0-42.3-19-42.3-42.3s19-42.3 42.3-42.3h126.8V385.2c0-23.2 19-42.3 42.3-42.3 23.2 0 42.3 19 42.3 42.3V512h126.8c23.2 0 42.3 19 42.3 42.3s-19.2 42.2-42.4 42.2z"></path>
</svg>