<svg viewBox="0 0 1126 1024">
    <path d="M537.6 291.84C537.6 130.56 668.16 0 829.44 0s291.84 130.56 291.84 291.84-130.56 291.84-291.84 291.84c-227.84 0-412.16 184.32-412.16 412.16v10.24h-89.6v-10.24c0-212.48 133.12-399.36 327.68-471.04-74.24-53.76-117.76-140.8-117.76-232.96z m89.6 0c0 110.08 89.6 202.24 202.24 202.24s199.68-89.6 199.68-202.24-89.6-199.68-199.68-199.68-202.24 89.6-202.24 199.68z m263.68 343.04h89.6v140.8h140.8v89.6h-140.8v140.8h-89.6v-140.8h-140.8v-89.6h140.8v-140.8zM209.92 291.84C209.92 130.56 343.04 0 501.76 0h10.24v92.16h-10.24c-110.08 0-199.68 89.6-199.68 199.68s89.6 202.24 199.68 202.24h10.24v89.6h-10.24c-227.84 0-412.16 184.32-412.16 412.16v10.24H0v-10.24c0-212.48 133.12-399.36 327.68-471.04-71.68-53.76-117.76-140.8-117.76-232.96z"></path>
</svg>