<svg viewBox="0 0 20 20">
    <circle cx="10.4" cy="11.1" r="8.1"/>
    <path  d="M13.2,18.8c0.2-0.1,0.6-0.3,1-0.5c0.4-0.3,0.6-0.6,0.6-0.6v-2.2c0-2.4-2-4.4-4.4-4.4h0c-2.4,0-4.4,2-4.4,4.4
	l0,2.3c0,0,0.3,0.3,0.8,0.5c0.3,0.1,0.5,0.3,1,0.4s1.2,0.3,1.7,0.4c0.5,0.1,1.1,0.1,1.7,0C11.8,19.2,13,18.9,13.2,18.8z"/>
    <circle cx="10.4" cy="15.4" r="1.3"/>
    <path  d="M13.2,1.5H7.6C7.2,1.5,7,1.3,7,0.9v0c0-0.3,0.3-0.6,0.6-0.6h5.6c0.3,0,0.6,0.3,0.6,0.6v0
	C13.9,1.3,13.6,1.5,13.2,1.5z"/>
    <line  x1="6.3" y1="7.8" x2="14.6" y2="7.8"/>
</svg>
