<svg viewBox="0 0 20 20">
    <g>
        <path d="M11.3,5.5l1,2.2H2.5l1-2.2H11.3 M11.9,4.5H2.9l-2,4.2h13L11.9,4.5L11.9,4.5z"/>
    </g>
    <path d="M2.1,16.2H1.9c-0.5,0-1-0.4-1-1v-1.5c0-0.5,0.4-1,1-1h0.2c0.5,0,1,0.4,1,1v1.5C3,15.8,2.6,16.2,2.1,16.2z"/>
    <path d="M12.9,16.2h-0.2c-0.5,0-1-0.4-1-1v-1.5c0-0.5,0.4-1,1-1h0.2c0.5,0,1,0.4,1,1v1.5C13.9,15.8,13.5,16.2,12.9,16.2
	z"/>
    <circle cx="3" cy="11.1" r="1"/>
    <g>
        <path d="M0.9,8.7v5.8h13V8.7H0.9z M3,12.1c-0.5,0-1-0.4-1-1s0.4-1,1-1s1,0.4,1,1S3.5,12.1,3,12.1z M11.8,12.1
		c-0.5,0-1-0.4-1-1s0.4-1,1-1s1,0.4,1,1S12.3,12.1,11.8,12.1z"/>
    </g>
    <g>
        <path d="M16.5,3c-0.5,0-0.9,0.4-0.9,0.9v12.6c0,0.5,0.4,0.9,0.9,0.9s0.9-0.4,0.9-0.9V3.9C17.4,3.4,17,3,16.5,3L16.5,3z
		"/>
    </g>
    <g>
        <path d="M17.8,7.3h-2.6c-0.7,0-1.3-0.6-1.3-1.3v0c0-0.7,0.6-1.3,1.3-1.3h2.6c0.7,0,1.3,0.6,1.3,1.3v0
		C19.1,6.7,18.5,7.3,17.8,7.3z"/>
    </g>
    <path d="M19.6,18.3h-6.2c0,0-0.1,0-0.1-0.1v-1.6c0,0,0-0.1,0.1-0.1h6.2c0,0,0.1,0,0.1,0.1L19.6,18.3
	C19.6,18.3,19.6,18.3,19.6,18.3z"/>
</svg>
