<svg viewBox="0 0 25 25">
    <g>
        <polygon points="18.7,0.9 12,5.9 12,6.5 18.7,1.6 	"/>
        <path d="M15,13.9c-0.3,0-0.5,0.3-0.6,0.7h-0.7v0.5h0.7c0.1,0.5,0.3,0.8,0.6,0.8c0.3,0,0.6-0.5,0.6-1
		C15.6,14.4,15.3,13.9,15,13.9z"/>
        <path d="M12.7,6V25l6.1-4.4V1.6L12.7,6z M15,15.9c-0.3,0-0.5-0.3-0.6-0.8h-0.7v-0.5h0.7c0.1-0.4,0.3-0.7,0.6-0.7
		c0.3,0,0.6,0.5,0.6,1C15.6,15.5,15.3,15.9,15,15.9z"/>
        <path d="M19.3,0H4.9C4.5,0,4.3,0.3,4.3,0.6v12.2v7.5c0,0.3,0.3,0.6,0.6,0.6c0.3,0,0.6-0.3,0.6-0.6l0-7.5h0V1.2h13.3
		v0.4l0,0v18.9l0.1,0c0.1,0.2,0.3,0.4,0.5,0.4c0.3,0,0.6-0.3,0.6-0.6V0.6C19.9,0.3,19.7,0,19.3,0z"/>
        <rect/>
    </g>
</svg>
