<svg viewBox="0 0 25 25">
    <g>
        <polygon points="18.9,0.9 12.1,5.9 12.1,6.5 18.9,1.6 	"/>
        <path d="M15.1,13.9c-0.3,0-0.5,0.3-0.6,0.7h-0.7v0.5h0.7c0.1,0.5,0.3,0.8,0.6,0.8c0.3,0,0.6-0.5,0.6-1
		C15.7,14.4,15.4,13.9,15.1,13.9z"/>
        <path d="M12.8,6V25l6.1-4.4V1.6L12.8,6z M15.1,15.9c-0.3,0-0.5-0.3-0.6-0.8h-0.7v-0.5h0.7c0.1-0.4,0.3-0.7,0.6-0.7
		c0.3,0,0.6,0.5,0.6,1C15.7,15.5,15.4,15.9,15.1,15.9z"/>
        <path d="M4.4,20.3c0,0.3,0.3,0.6,0.6,0.6c0.3,0,0.6-0.3,0.6-0.6l0-7.5H4.4V20.3z"/>
        <path d="M19.5,0H5C4.7,0,4.4,0.3,4.4,0.6v12.2h1.2h0V1.2h13.3v0.4l0,0v18.9l0.1,0c0.1,0.2,0.3,0.4,0.5,0.4
		c0.3,0,0.6-0.3,0.6-0.6V0.6C20.1,0.3,19.8,0,19.5,0z"/>
        <rect/>
    </g>
</svg>
