<svg viewBox="0 0 25 25">
    <g>
        <polygon points="18.1,0.9 11.4,5.9 11.4,6.5 18.1,1.6 	"/>
        <path d="M14.4,13.9c-0.3,0-0.5,0.3-0.6,0.7h-0.7v0.5h0.7c0.1,0.5,0.3,0.8,0.6,0.8c0.3,0,0.6-0.5,0.6-1
		C15,14.4,14.7,13.9,14.4,13.9z"/>
        <path d="M12.1,6V25l6.1-4.4V1.6L12.1,6z M14.4,15.9c-0.3,0-0.5-0.3-0.6-0.8h-0.7v-0.5h0.7c0.1-0.4,0.3-0.7,0.6-0.7
		c0.3,0,0.6,0.5,0.6,1C15,15.5,14.7,15.9,14.4,15.9z"/>
        <path d="M3.7,20.3c0,0.3,0.3,0.6,0.6,0.6c0.3,0,0.6-0.3,0.6-0.6l0-7.5H3.7V20.3z"/>
        <path d="M18.7,0H4.3C3.9,0,3.7,0.3,3.7,0.6v12.2h1.2h0V1.2h13.3v0.4l0,0v18.9l0.1,0c0.1,0.2,0.3,0.4,0.5,0.4
		c0.3,0,0.6-0.3,0.6-0.6V0.6C19.3,0.3,19.1,0,18.7,0z"/>
        <rect/>
    </g>
    <g>
        <path d="M16.5,11.6c0,0-0.1,0.1-0.2,0.1c-0.1,0.1-0.3,0.2-0.6,0.4c-0.3,0.1-0.6,0.3-1,0.4c-0.4,0.1-0.9,0.2-1.5,0.3
		C12.6,13,12,13,11.3,13c0,0-0.1,0-0.1,0.1c0,0-0.1,0.1-0.1,0.1l0.9,6.3c0.1,0.5,0.3,1,0.6,1.5c0.3,0.5,0.7,0.9,1.1,1.3
		c0.4,0.3,0.8,0.7,1.3,1c0.5,0.3,0.8,0.5,1.1,0.6c0.2,0.1,0.4,0.2,0.5,0.2L16.5,11.6C16.6,11.6,16.6,11.6,16.5,11.6z"/>
        <path d="M22.1,13.1c0,0-0.1-0.1-0.1-0.1l0,0c-0.4,0-0.8,0-1.2,0c-0.4,0-0.7-0.1-1-0.1c-0.3-0.1-0.6-0.1-0.8-0.2
		c-0.3-0.1-0.5-0.1-0.7-0.2c-0.2-0.1-0.4-0.1-0.6-0.2c-0.2-0.1-0.3-0.2-0.4-0.2c-0.1-0.1-0.2-0.1-0.3-0.2c-0.1-0.1-0.1-0.1-0.2-0.1
		l-0.1-0.1c0,0,0-0.1-0.1-0.1v12.5c0.1,0,0.3-0.1,0.5-0.3c0.2-0.1,0.6-0.4,1.1-0.7c0.5-0.3,0.9-0.6,1.3-1c0.4-0.3,0.8-0.8,1.1-1.2
		c0.3-0.5,0.5-1,0.6-1.4l0.9-6.3C22.1,13.2,22.1,13.1,22.1,13.1z"/>
    </g>
</svg>
